<svg width="33" height="32" viewBox="0 0 33 32" fill="none" xmlns="http://www.w3.org/2000/svg">
<path d="M31.6009 29.7333L26.5342 24.6667L29.6009 21.6C30.1342 21.0667 30.1342 20.2667 29.6009 19.7333C29.0675 19.2 28.2675 19.2 27.7342 19.7333L26.8008 20.6667L23.8675 16.9333C28.0009 12.6667 30.8009 7.6 32.0006 1.73333V1.46667C32.134 1.06667 32.0006 0.533333 31.6006 0.266667C31.334 0.133333 30.8006 0 30.4006 0H30.2673C24.8009 1.2 20.0009 3.73333 16.0004 7.46667C12.0004 3.73333 7.20043 1.19979 1.73355 0H1.60021C1.20021 0 0.66688 0.133333 0.400213 0.4C0.133547 0.666667 0.000213216 1.2 0.000213216 1.6V1.86667C1.20021 7.60021 4.00021 12.8 8.13333 16.8L5.2 20.5333L4.26667 19.6C3.73333 19.0667 2.93333 19.0667 2.4 19.6C1.86667 20.1333 1.86667 20.9333 2.4 21.4667L5.46667 24.5333L0.4 29.6C0.133333 30 0 30.2667 0 30.6667C0 31.0667 0.133333 31.3333 0.4 31.6C0.666667 31.8667 0.933333 32 1.33333 32C1.73333 32 2 31.8667 2.26667 31.6L7.33333 26.5333L10.4 29.6C10.6667 29.8667 11.0667 30 11.3333 30C11.6 30 12 29.8667 12.2667 29.6C12.8 29.0667 12.8 28.2667 12.2667 27.7333L11.3333 26.8L15.8667 23.2L20.4 26.8L19.4667 27.7333C18.9333 28.2667 18.9333 29.0667 19.4667 29.6C19.7333 29.8667 20.1333 30 20.4 30C20.6667 30 21.0667 29.8667 21.3333 29.6L24.4 26.5333L29.4667 31.6C29.7333 31.8667 30.1333 32 30.4 32C30.6667 32 31.0667 31.8667 31.3333 31.6C31.6 31.3333 32 31.0667 32 30.6667C32 30.2667 31.8667 30 31.6 29.7333H31.6009ZM3.06752 3.06667C7.20085 4.26667 10.9344 6.4 14.1344 9.33355C13.8677 9.73355 13.4677 10.1335 13.2011 10.4002L9.86773 14.6669C6.66773 11.4669 4.26773 7.46688 3.06752 3.06667ZM9.60064 24.8002L7.20064 22.4002L15.3338 12.0002C15.7338 11.4669 16.4004 10.8002 16.9338 10.1335C20.2671 6.66688 24.2673 4.26688 28.8002 2.93355C27.4669 7.73355 24.8002 12.1333 20.9333 15.4669C20.5333 15.8669 20.1333 16.1335 19.7333 16.4002L9.60064 24.8002ZM22.4006 24.8002L18.134 21.3335L21.4673 18.6669C21.6006 18.6669 21.6006 18.5335 21.734 18.5335L24.8006 22.4002L22.4006 24.8002Z" fill="#DCDABC"/>
</svg>

