<svg width="26" height="24" viewBox="0 0 26 24" fill="none" xmlns="http://www.w3.org/2000/svg">
<path d="M23.9991 15.4663H8.12326C8.05436 15.3272 7.98417 15.0503 8.12326 14.7735C8.33124 14.1495 9.02409 13.6646 10.2031 13.3864L22.8214 11.9994C23.5143 11.9305 24.0005 11.3066 24.0005 10.6124V4.37279C24.0005 3.60973 23.3765 2.98577 22.6134 2.98577L5.55853 2.98707L5.28035 1.32317C5.14256 0.699215 4.5875 0.214355 3.89462 0.214355H1.81476C1.05169 0.214355 0.427734 0.838315 0.427734 1.60138C0.427734 2.36444 1.05169 2.9884 1.81476 2.9884H2.78581L5.35053 15.8147V15.8836C5.62741 17.2706 6.66734 18.1714 7.84637 18.1714L23.9991 18.1701C24.7622 18.1701 25.3861 17.5462 25.3861 16.7831C25.3861 16.0214 24.7622 15.4663 23.9991 15.4663Z" fill="#252321"/>
<path d="M6.66755 21.7058C6.66755 22.855 5.7368 23.7857 4.58768 23.7857C3.43856 23.7857 2.50781 22.855 2.50781 21.7058C2.50781 20.5567 3.43856 19.626 4.58768 19.626C5.7368 19.626 6.66755 20.5567 6.66755 21.7058Z" fill="#252321"/>
<path d="M23.3062 21.7058C23.3062 22.855 22.3755 23.7857 21.2264 23.7857C20.0772 23.7857 19.1465 22.855 19.1465 21.7058C19.1465 20.5567 20.0772 19.626 21.2264 19.626C22.3755 19.626 23.3062 20.5567 23.3062 21.7058Z" fill="#252321"/>
</svg>

