<svg width="20" height="20" viewBox="0 0 20 20" fill="none" xmlns="http://www.w3.org/2000/svg">
<path d="M12.2117 9.99733L19.5421 2.66887C20.1526 2.05852 20.1526 1.06811 19.5421 0.457763C18.9316 -0.152588 17.9409 -0.152588 17.3304 0.457763L10 7.78622L2.66958 0.457763C2.05907 -0.152588 1.0684 -0.152588 0.457885 0.457763C-0.152628 1.06811 -0.152628 2.05852 0.457885 2.66887L7.7883 9.99733L0.457885 17.3258C-0.152628 17.9361 -0.152628 18.9265 0.457885 19.5369C0.752441 19.8314 1.15316 20 1.55303 20C1.95291 20 2.35363 19.8528 2.64818 19.5369L9.99987 12.2084L17.3303 19.5369C17.6248 19.8314 18.0256 20 18.4254 20C18.8253 20 19.226 19.8528 19.5206 19.5369C20.1311 18.9265 20.1311 17.9361 19.5206 17.3258L12.2117 9.99733Z" fill="#DCDABC"/>
</svg>

