<svg width="32" height="33" viewBox="0 0 32 33" fill="none" xmlns="http://www.w3.org/2000/svg">
  <path 
    fill-rule="evenodd" 
    clip-rule="evenodd" 
    d="M18.7138 25.9424C18.0945 26.5618 17.592 26.3529 17.592 25.4723V19.6865C17.592 18.8059 18.3034 18.092 19.1865 18.092H24.9723C25.8528 18.092 26.0593 18.5995 25.4424 19.2138L25.6787 18.98C25.0569 19.5994 25.0544 20.6019 25.6812 21.2287C26.3031 21.8505 27.3105 21.8505 27.9349 21.2262L31.5317 17.6293C32.1561 17.005 32.1561 15.9951 31.5317 15.3707L27.9349 11.7738C27.313 11.152 26.3081 11.147 25.6812 11.7713C25.0594 12.3932 25.0618 13.4056 25.6787 14.02L25.4424 13.7862C26.0618 14.4055 25.8529 14.908 24.9723 14.908H19.1865C18.3059 14.908 17.592 14.1966 17.592 13.3135V7.52771C17.592 6.64715 18.0995 6.44071 18.7138 7.05758L18.48 6.82127C19.0994 7.44314 20.1019 7.44563 20.7287 6.81879C21.3505 6.19692 21.3505 5.18949 20.7262 4.56512L17.1293 0.968266C16.505 0.343911 15.4951 0.343911 14.8707 0.968266L11.2738 4.56512C10.652 5.18698 10.647 6.19193 11.2713 6.81879C11.8932 7.44065 12.9056 7.43817 13.52 6.82127L13.2862 7.05758C13.9055 6.4382 14.408 6.64715 14.408 7.52771V13.3135C14.408 14.1941 13.6966 14.908 12.8135 14.908H7.02771C6.14716 14.908 5.94071 14.4005 6.55758 13.7862L6.32127 14.02C6.94314 13.4006 6.94563 12.3981 6.31878 11.7713C5.69692 11.1495 4.68949 11.1495 4.06512 11.7738L0.468266 15.3707C-0.156089 15.995 -0.156089 17.0049 0.468266 17.6293L4.06512 21.2262C4.68698 21.848 5.69193 21.853 6.31878 21.2287C6.94065 20.6068 6.93817 19.5944 6.32127 18.98L6.55758 19.2138C5.9382 18.5945 6.14715 18.092 7.02771 18.092H12.8135C13.6941 18.092 14.408 18.8034 14.408 19.6865V25.4723C14.408 26.3528 13.9005 26.5593 13.2862 25.9424L13.52 26.1787C12.9006 25.5569 11.8981 25.5544 11.2713 26.1812C10.6495 26.8031 10.6495 27.8105 11.2738 28.4349L14.8707 32.0317C15.495 32.6561 16.5049 32.6561 17.1293 32.0317L20.7262 28.4349C21.348 27.813 21.353 26.8081 20.7287 26.1812C20.1068 25.5594 19.0944 25.5618 18.48 26.1787L18.7138 25.9424Z" 
    fill="#DCDABC"
  />
</svg>

