<svg width="22" height="22" viewBox="0 0 22 22" fill="none" xmlns="http://www.w3.org/2000/svg">
<path d="M11 0C9.31229 0 7.94445 1.36785 7.94445 3.05556V7.94445H3.05556C1.36785 7.94445 0 9.31229 0 11C0 12.6877 1.36785 14.0556 3.05556 14.0556H7.94445V18.9444C7.94445 20.6322 9.31229 22 11 22C12.6877 22 14.0556 20.6322 14.0556 18.9444V14.0556H18.9444C20.6322 14.0556 22 12.6877 22 11C22 9.31229 20.6322 7.94445 18.9444 7.94445H14.0556V3.05556C14.0556 1.36785 12.6877 0 11 0Z" fill="#252321"/>
</svg>

