<svg width="17" height="26" viewBox="0 0 17 26" fill="none" xmlns="http://www.w3.org/2000/svg">
<path d="M5.60746 23.4535C5.60746 24.89 6.80778 26 8.21172 26C9.61559 26 10.816 24.8237 10.816 23.4535C10.816 22.0169 9.61566 20.9069 8.21172 20.9069C6.74258 20.9069 5.60746 22.0806 5.60746 23.4535Z" fill="#252321"/>
<path d="M8.61361 0.00389558C6.34336 -0.0624723 4.20352 0.720877 2.60131 2.22382C0.996492 3.72677 0.0626281 5.81662 0 7.90897C0 9.41192 1.26819 10.652 2.80521 10.652C4.34222 10.652 5.61041 9.41192 5.61041 7.90897C5.61041 7.25574 5.94441 6.60253 6.41152 6.14578C6.94648 5.68903 7.61451 5.42621 8.28254 5.49255C9.55341 5.55892 10.6207 6.60512 10.6885 7.84521C10.7537 8.88881 10.1536 9.86868 9.15152 10.2616C6.94647 11.1087 5.40947 13.3313 5.40947 15.7477V16.6612C5.40947 18.1641 6.67766 19.4042 8.21467 19.4042C9.75168 19.4042 11.0199 18.1641 11.0199 16.6612V15.7477C11.0199 15.5512 11.153 15.4211 11.2208 15.3547C14.4931 14.1149 16.4972 10.9789 16.3641 7.58264C16.1631 3.53028 12.7549 0.200373 8.61361 0.00389558Z" fill="#252321"/>
</svg>

