<svg width="27" height="32" viewBox="0 0 27 32" fill="none" xmlns="http://www.w3.org/2000/svg">
<path fill-rule="evenodd" clip-rule="evenodd" d="M13.3328 0C6 0 0 6 0 13.3328C0 17.6 2 21.4656 5.3328 24V30.6672C5.3328 31.4656 5.8656 32 6.6656 32H19.9984C20.7984 32 21.3328 31.4656 21.3328 30.6672V24C24.6656 21.4656 26.6656 17.6 26.6656 13.3328C26.6656 6 20.6656 0 13.3328 0ZM19.2 22.2672C18.9328 22.5344 18.6656 22.9344 18.6656 23.3328V29.3328H17.3328V26.6672C17.3328 25.8672 16.7985 25.3328 16 25.3328C15.2 25.3328 14.6657 25.8672 14.6657 26.6672V29.3328H12V26.6672C12 25.8672 11.4672 25.3328 10.6672 25.3328C9.86724 25.3328 9.33444 25.8672 9.33444 26.6672V29.3328H8.00164V23.3328C8.00164 22.7985 7.73445 22.3985 7.46884 22.2672C4.40164 20.4 2.66884 17.0672 2.66884 13.4672C2.66571 7.6 7.46564 2.8 13.3328 2.8C19.2 2.8 24 7.6 24 13.4672C24 16.9344 22.1328 20.2672 19.2 22.2672H19.2ZM19.8679 15.3328L20.9335 14.2672C21.4663 13.7328 21.4663 12.9344 20.9335 12.4C20.3991 11.8672 19.5991 11.8672 19.0663 12.4L18.0007 13.4656L16.9335 12.4C16.3991 11.8672 15.5991 11.8672 15.0663 12.4C14.5335 12.9343 14.5335 13.7328 15.0663 14.2672L16.1319 15.3328L15.0663 16.4C14.5335 16.9344 14.5335 17.7344 15.0663 18.2672C15.3335 18.5344 15.6006 18.6672 16.0006 18.6672C16.4006 18.6672 16.6663 18.5344 16.935 18.2672L18.0006 17.2016L19.0663 18.2672C19.3335 18.5344 19.6006 18.6672 20.0006 18.6672C20.4006 18.6672 20.6663 18.5344 20.935 18.2672C21.4678 17.7328 21.4678 16.9344 20.935 16.4L19.8679 15.3328ZM9.73203 12.4001C10.2664 11.8673 11.0649 11.8673 11.5992 12.4001H11.5991C12.1319 12.9345 12.1319 13.7329 11.5991 14.2688L10.5335 15.3345L11.5991 16.4001C12.1319 16.9345 12.1319 17.733 11.6007 18.2673C11.3335 18.5345 11.0663 18.6673 10.6663 18.6673C10.2663 18.6673 9.99917 18.5345 9.73199 18.2673L8.66635 17.2017L7.60071 18.2673C7.33355 18.5345 7.06635 18.6673 6.66635 18.6673C6.26635 18.6673 5.99917 18.5345 5.73199 18.2673C5.19919 17.7345 5.19919 16.9345 5.73199 16.4001L6.79763 15.3329L5.73199 14.2673C5.19919 13.7329 5.19919 12.9344 5.73199 12.4001C6.26639 11.8673 7.06483 11.8673 7.59919 12.4001L8.66483 13.4657L9.73203 12.4001Z" fill="#DCDABC"/>
</svg>

